<?xml version="1.0" encoding="UTF-8" standalone="no"?>
<!-- Created with Inkscape (http://www.inkscape.org/) -->

<svg
   xmlns:dc="http://purl.org/dc/elements/1.1/"
   xmlns:cc="http://creativecommons.org/ns#"
   xmlns:rdf="http://www.w3.org/1999/02/22-rdf-syntax-ns#"
   xmlns:svg="http://www.w3.org/2000/svg"
   xmlns="http://www.w3.org/2000/svg"
   xmlns:sodipodi="http://sodipodi.sourceforge.net/DTD/sodipodi-0.dtd"
   xmlns:inkscape="http://www.inkscape.org/namespaces/inkscape"
   width="401.85049mm"
   height="110.20526mm"
   viewBox="0 0 401.85048 110.20526"
   version="1.1"
   id="svg8"
   inkscape:version="0.92.3 (2405546, 2018-03-11)"
   sodipodi:docname="cloud-code-logo.svg">
  <defs
     id="defs2" />
  <sodipodi:namedview
     id="base"
     pagecolor="#ffffff"
     bordercolor="#666666"
     borderopacity="1.0"
     inkscape:pageopacity="0.0"
     inkscape:pageshadow="2"
     inkscape:zoom="0.35"
     inkscape:cx="1666.7024"
     inkscape:cy="77.441036"
     inkscape:document-units="mm"
     inkscape:current-layer="text1134"
     showgrid="false"
     fit-margin-top="0"
     fit-margin-left="0"
     fit-margin-right="0"
     fit-margin-bottom="0"
     inkscape:window-width="1920"
     inkscape:window-height="1017"
     inkscape:window-x="-8"
     inkscape:window-y="-8"
     inkscape:window-maximized="1" />
  <metadata
     id="metadata5">
    <rdf:RDF>
      <cc:Work
         rdf:about="">
        <dc:format>image/svg+xml</dc:format>
        <dc:type
           rdf:resource="http://purl.org/dc/dcmitype/StillImage" />
        <dc:title></dc:title>
      </cc:Work>
    </rdf:RDF>
  </metadata>
  <g
     inkscape:label="Layer 1"
     inkscape:groupmode="layer"
     id="layer1"
     transform="translate(-114.95721,-71.291251)">
    <g
       id="g918"
       transform="matrix(0.26458333,0,0,0.26458333,114.95721,55.147551)"
       style="fill:#847ef2;fill-opacity:1">
      <g
         id="g862"
         style="fill:#847ef2;fill-opacity:1">
        <path
           id="path860"
           d="m 524.183,297.065 c -15.985,-19.893 -36.265,-32.691 -60.815,-38.399 7.81,-11.993 11.704,-25.126 11.704,-39.399 0,-20.177 -7.139,-37.401 -21.409,-51.678 -14.273,-14.272 -31.498,-21.411 -51.675,-21.411 -18.271,0 -34.071,5.901 -47.39,17.703 -11.225,-27.028 -29.075,-48.917 -53.529,-65.667 -24.46,-16.746 -51.728,-25.125 -81.802,-25.125 -40.349,0 -74.802,14.279 -103.353,42.83 -28.553,28.544 -42.825,62.999 -42.825,103.351 0,2.856 0.191,6.945 0.571,12.275 C 51.582,241.824 33.784,257.383 20.271,278.231 6.759,299.067 0,322.055 0,347.18 c 0,35.211 12.517,65.333 37.544,90.359 25.028,25.033 55.15,37.548 90.362,37.548 h 310.636 c 30.259,0 56.096,-10.715 77.512,-32.121 21.413,-21.412 32.121,-47.249 32.121,-77.515 -0.003,-25.694 -8.001,-48.499 -23.992,-68.386 z"
           inkscape:connector-curvature="0"
           style="fill:#847ef2;fill-opacity:1" />
      </g>
      <g
         id="g864"
         style="fill:#847ef2;fill-opacity:1" />
      <g
         id="g866"
         style="fill:#847ef2;fill-opacity:1" />
      <g
         id="g868"
         style="fill:#847ef2;fill-opacity:1" />
      <g
         id="g870"
         style="fill:#847ef2;fill-opacity:1" />
      <g
         id="g872"
         style="fill:#847ef2;fill-opacity:1" />
      <g
         id="g874"
         style="fill:#847ef2;fill-opacity:1" />
      <g
         id="g876"
         style="fill:#847ef2;fill-opacity:1" />
      <g
         id="g878"
         style="fill:#847ef2;fill-opacity:1" />
      <g
         id="g880"
         style="fill:#847ef2;fill-opacity:1" />
      <g
         id="g882"
         style="fill:#847ef2;fill-opacity:1" />
      <g
         id="g884"
         style="fill:#847ef2;fill-opacity:1" />
      <g
         id="g886"
         style="fill:#847ef2;fill-opacity:1" />
      <g
         id="g888"
         style="fill:#847ef2;fill-opacity:1" />
      <g
         id="g890"
         style="fill:#847ef2;fill-opacity:1" />
      <g
         id="g892"
         style="fill:#847ef2;fill-opacity:1" />
    </g>
    <g
       aria-label="{Code}.Cloudulus.Media"
       style="font-style:normal;font-variant:normal;font-weight:normal;font-stretch:normal;font-size:10.58333302px;line-height:1.25;font-family:Lato;-inkscape-font-specification:Lato;letter-spacing:0px;word-spacing:0px;fill:#000000;fill-opacity:1;stroke:none;stroke-width:0.26458332"
       id="text1134"
       transform="translate(-2.2678571)">
      <path
         d="m 274.12927,150.01109 q 0,-2.77812 -1.5434,-4.54201 -1.5434,-1.80799 -4.49792,-1.80799 v -4.7184 q 2.95452,0 4.49792,-1.76389 1.5434,-1.76389 1.5434,-4.58611 0,-2.20486 -0.35278,-4.36563 -0.35277,-2.16076 -0.79375,-4.32152 -0.39687,-2.16077 -0.74965,-4.36563 -0.35278,-2.20486 -0.35278,-4.49791 0,-3.04271 0.88195,-5.60035 0.92604,-2.55764 2.73403,-4.40972 1.85208,-1.85209 4.54201,-2.86632 2.73403,-1.01424 6.35,-1.01424 h 2.33715 v 3.48368 q 0,0.88195 -0.61736,1.27882 -0.61736,0.39688 -1.14653,0.39688 h -0.88194 q -3.39549,0 -5.37986,2.24895 -1.94028,2.20486 -1.94028,5.99723 0,2.46944 0.30868,4.7625 0.30868,2.29305 0.70556,4.49791 0.39687,2.16077 0.70555,4.32153 0.30868,2.16076 0.30868,4.36562 0,1.6757 -0.48507,3.13091 -0.48507,1.41111 -1.41111,2.55764 -0.88194,1.10243 -2.11667,1.94027 -1.19062,0.79375 -2.64583,1.19063 1.45521,0.39687 2.64583,1.23472 1.23473,0.79375 2.11667,1.94028 0.92604,1.14653 1.41111,2.55764 0.48507,1.41111 0.48507,3.04271 0,2.20486 -0.30868,4.36562 -0.30868,2.16077 -0.70555,4.36563 -0.39688,2.16076 -0.70556,4.45382 -0.30868,2.29305 -0.30868,4.7625 0,3.83645 1.94028,6.04131 1.98437,2.20487 5.37986,2.20487 h 0.88194 q 0.52917,0 1.14653,0.39687 0.61736,0.39688 0.61736,1.27882 v 3.52778 h -2.33715 q -3.61597,0 -6.35,-1.05834 -2.68993,-1.01423 -4.54201,-2.86631 -1.80799,-1.85209 -2.73403,-4.40973 -0.88195,-2.55764 -0.88195,-5.60034 0,-2.29306 0.35278,-4.45382 0.35278,-2.20486 0.74965,-4.36563 0.44098,-2.20486 0.79375,-4.36562 0.35278,-2.16077 0.35278,-4.36563 z"
         style="fill:#c1c0e3;fill-opacity:1"
         id="path1200"
         inkscape:connector-curvature="0" />
      <path
         d="m 343.16347,155.69963 q 0.70556,0 1.27882,0.57327 l 3.35139,3.66007 q -3.88056,4.49791 -9.4368,7.01145 -5.51216,2.51355 -13.31737,2.51355 -6.83507,0 -12.39132,-2.33716 -5.55624,-2.38125 -9.4809,-6.61458 -3.92465,-4.27743 -6.08541,-10.23055 -2.16077,-5.95313 -2.16077,-13.09688 0,-7.14375 2.29306,-13.09687 2.33715,-5.95313 6.52639,-10.23056 4.18923,-4.27743 10.01007,-6.61458 5.86493,-2.38125 12.92048,-2.38125 6.96736,0 11.99445,2.16076 5.07118,2.16076 8.99583,5.86493 l -2.77813,3.92465 q -0.30868,0.44098 -0.70555,0.74966 -0.39688,0.26458 -1.14653,0.26458 -0.57326,0 -1.23472,-0.39687 -0.61736,-0.44098 -1.49931,-1.05834 -0.88194,-0.61736 -2.07257,-1.32291 -1.19062,-0.70556 -2.82222,-1.32292 -1.6316,-0.61736 -3.79236,-1.01424 -2.16076,-0.44097 -4.98299,-0.44097 -5.07118,0 -9.30451,1.76389 -4.18924,1.71979 -7.23194,4.93889 -3.04271,3.2191 -4.7625,7.8493 -1.6757,4.63021 -1.6757,10.36285 0,5.90903 1.6757,10.53924 1.71979,4.6302 4.6302,7.8493 2.95452,3.175 6.96737,4.8507 4.01284,1.67569 8.64305,1.67569 2.82222,0 5.07118,-0.30868 2.24896,-0.35278 4.14514,-1.05833 1.94028,-0.70556 3.57188,-1.76389 1.67569,-1.10243 3.35138,-2.60174 0.74966,-0.66146 1.45521,-0.66146 z"
         style="fill:#c1c0e3;fill-opacity:1"
         id="path1202"
         inkscape:connector-curvature="0" />
      <path
         d="m 375.93184,123.37637 q 4.89479,0 8.81945,1.6316 3.96875,1.63159 6.70277,4.63021 2.77813,2.99861 4.23334,7.27604 1.4993,4.23333 1.4993,9.4809 0,5.29167 -1.4993,9.525 -1.45521,4.23333 -4.23334,7.23194 -2.73402,2.99861 -6.70277,4.63021 -3.92466,1.5875 -8.81945,1.5875 -4.89479,0 -8.86354,-1.5875 -3.92465,-1.6316 -6.70278,-4.63021 -2.77812,-2.99861 -4.27743,-7.23194 -1.4993,-4.23333 -1.4993,-9.525 0,-5.24757 1.4993,-9.4809 1.49931,-4.27743 4.27743,-7.27604 2.77813,-2.99862 6.70278,-4.63021 3.96875,-1.6316 8.86354,-1.6316 z m 0,39.86389 q 6.61459,0 9.87778,-4.40972 3.26319,-4.45382 3.26319,-12.39132 0,-7.9816 -3.26319,-12.43542 -3.26319,-4.45382 -9.87778,-4.45382 -3.35139,0 -5.82083,1.14653 -2.46944,1.14653 -4.14514,3.30729 -1.6316,2.16076 -2.46944,5.33576 -0.79375,3.13091 -0.79375,7.09966 0,3.96875 0.79375,7.09965 0.83784,3.1309 2.46944,5.29167 1.6757,2.11666 4.14514,3.26319 2.46944,1.14653 5.82083,1.14653 z"
         style="fill:#c1c0e3;fill-opacity:1"
         id="path1204"
         inkscape:connector-curvature="0" />
      <path
         d="m 438.38591,168.75241 q -1.6757,0 -2.11667,-1.6316 l -0.70556,-5.42395 q -2.86631,3.48368 -6.57048,5.60034 -3.66007,2.07257 -8.42257,2.07257 -3.83646,0 -6.96736,-1.45521 -3.1309,-1.4993 -5.33577,-4.36562 -2.20486,-2.86632 -3.39548,-7.14375 -1.19063,-4.27743 -1.19063,-9.83368 0,-4.93889 1.32292,-9.17222 1.32292,-4.27743 3.79236,-7.40834 2.51354,-3.1309 6.08542,-4.89479 3.57187,-1.80798 8.11389,-1.80798 4.10104,0 7.01145,1.41111 2.91042,1.36701 5.20348,3.88055 V 103.7972 h 7.8493 v 64.95521 z m -15.21354,-5.73264 q 3.83645,0 6.70277,-1.76389 2.91042,-1.76389 5.33577,-4.98298 v -21.60764 q -2.16077,-2.91042 -4.7625,-4.05695 -2.55764,-1.19062 -5.68854,-1.19062 -6.26181,0 -9.6132,4.45382 -3.35139,4.45382 -3.35139,12.7 0,4.36562 0.74965,7.49653 0.74966,3.0868 2.20487,5.11527 1.4552,1.98438 3.57187,2.91042 2.11667,0.92604 4.8507,0.92604 z"
         style="fill:#c1c0e3;fill-opacity:1"
         id="path1206"
         inkscape:connector-curvature="0" />
      <path
         d="m 473.89245,123.37637 q 4.01285,0 7.40833,1.36701 3.39549,1.32292 5.86493,3.88056 2.46945,2.51354 3.83646,6.2618 1.41111,3.70417 1.41111,8.46667 0,1.85208 -0.39687,2.46945 -0.39688,0.61736 -1.49931,0.61736 h -29.72152 q 0.0882,4.23333 1.14652,7.36423 1.05834,3.13091 2.91042,5.24757 1.85208,2.07257 4.40972,3.1309 2.55764,1.01424 5.73264,1.01424 2.95452,0 5.07118,-0.66146 2.16077,-0.70555 3.70417,-1.4993 1.5434,-0.79375 2.55764,-1.45521 1.05833,-0.70556 1.80798,-0.70556 0.97014,0 1.49931,0.74966 l 2.20486,2.86632 q -1.45521,1.76388 -3.48368,3.0868 -2.02847,1.27882 -4.36563,2.11667 -2.29305,0.83784 -4.7625,1.23472 -2.46944,0.44097 -4.89479,0.44097 -4.63021,0 -8.55486,-1.5434 -3.88055,-1.5875 -6.74687,-4.58611 -2.82222,-3.04271 -4.40972,-7.49653 -1.5875,-4.45382 -1.5875,-10.23055 0,-4.67431 1.41111,-8.73125 1.4552,-4.05695 4.14514,-7.01146 2.68993,-2.99861 6.57048,-4.67431 3.88056,-1.71979 8.73125,-1.71979 z m 0.17639,5.77674 q -5.68854,0 -8.95174,3.30729 -3.26319,3.26319 -4.05694,9.08403 h 24.29757 q 0,-2.73403 -0.74965,-4.98299 -0.74966,-2.29306 -2.20487,-3.92465 -1.4552,-1.6757 -3.57187,-2.55764 -2.07257,-0.92604 -4.7625,-0.92604 z"
         style="fill:#c1c0e3;fill-opacity:1"
         id="path1208"
         inkscape:connector-curvature="0" />
      <path
         d="m 513.03423,150.01109 q 0,2.20486 0.35278,4.36563 0.35278,2.16076 0.74965,4.36562 0.44097,2.16077 0.79375,4.36563 0.35278,2.16076 0.35278,4.45382 0,3.0427 -0.92604,5.60034 -0.92604,2.55764 -2.73403,4.40973 -1.80799,1.85208 -4.54201,2.86631 -2.68993,1.05834 -6.30591,1.05834 h -2.33715 v -3.52778 q 0,-0.88194 0.61736,-1.27882 0.61736,-0.39687 1.14653,-0.39687 h 0.88194 q 3.39549,0 5.33577,-2.20487 1.98437,-2.20486 1.98437,-6.04131 0,-2.46945 -0.30868,-4.7625 -0.30868,-2.29306 -0.70555,-4.45382 -0.39688,-2.20486 -0.70556,-4.36563 -0.30868,-2.16076 -0.30868,-4.36562 0,-1.6316 0.48507,-3.04271 0.48507,-1.41111 1.36701,-2.55764 0.92605,-1.14653 2.11667,-1.94028 1.23472,-0.83785 2.68993,-1.23472 -1.45521,-0.39688 -2.68993,-1.19063 -1.19062,-0.83784 -2.11667,-1.94027 -0.88194,-1.14653 -1.36701,-2.55764 -0.48507,-1.45521 -0.48507,-3.13091 0,-2.20486 0.30868,-4.36562 0.30868,-2.16076 0.70556,-4.32153 0.39687,-2.20486 0.70555,-4.49791 0.30868,-2.29306 0.30868,-4.7625 0,-3.79237 -1.98437,-5.99723 -1.94028,-2.24895 -5.33577,-2.24895 h -0.88194 q -0.52917,0 -1.14653,-0.39688 -0.61736,-0.39687 -0.61736,-1.27882 v -3.48368 h 2.33715 q 3.61598,0 6.30591,1.01424 2.73402,1.01423 4.54201,2.86632 1.80799,1.85208 2.73403,4.40972 0.92604,2.55764 0.92604,5.60035 0,2.29305 -0.35278,4.49791 -0.35278,2.20486 -0.79375,4.36563 -0.39687,2.16076 -0.74965,4.32152 -0.35278,2.16077 -0.35278,4.36563 0,2.82222 1.5434,4.58611 1.54341,1.76389 4.49792,1.76389 v 4.7184 q -2.95451,0 -4.49792,1.80799 -1.5434,1.76389 -1.5434,4.54201 z"
         style="fill:#c1c0e3;fill-opacity:1"
         id="path1210"
         inkscape:connector-curvature="0" />
      <path
         d="m 312.16258,87.340521 q 0.21817,0 0.39543,0.17727 l 1.03632,1.13176 q -1.19994,1.39085 -2.91805,2.16809 -1.70447,0.77724 -4.11799,0.77724 -2.11354,0 -3.83165,-0.7227 -1.7181,-0.73633 -2.93169,-2.04536 -1.21358,-1.32267 -1.88173,-3.16349 -0.66815,-1.84083 -0.66815,-4.04982 0,-2.20899 0.70906,-4.04982 0.72269,-1.84082 2.01809,-3.16349 1.29539,-1.32267 3.09532,-2.04536 1.81355,-0.73633 3.99527,-0.73633 2.15444,0 3.70892,0.66815 1.56811,0.66815 2.78169,1.81355 l -0.85905,1.21358 q -0.0955,0.13636 -0.21817,0.23181 -0.12272,0.0818 -0.35453,0.0818 -0.17726,0 -0.3818,-0.12272 -0.1909,-0.13636 -0.46362,-0.32726 -0.27271,-0.1909 -0.64088,-0.40907 -0.36816,-0.21818 -0.87269,-0.40908 -0.50452,-0.1909 -1.17267,-0.31362 -0.66815,-0.13636 -1.54084,-0.13636 -1.56811,0 -2.87714,0.54543 -1.29539,0.5318 -2.23626,1.52721 -0.94087,0.99541 -1.47266,2.42716 -0.51816,1.43175 -0.51816,3.2044 0,1.82719 0.51816,3.25894 0.53179,1.43175 1.43175,2.42716 0.9136,0.98178 2.15445,1.49994 1.24085,0.51816 2.6726,0.51816 0.87269,0 1.56811,-0.0954 0.69543,-0.10909 1.28176,-0.32726 0.59998,-0.21818 1.1045,-0.54543 0.51816,-0.3409 1.03632,-0.80451 0.23181,-0.20454 0.44998,-0.20454 z"
         style="font-size:88.19444275px;fill:#ffffff;stroke-width:0.08181447"
         id="path1214"
         inkscape:connector-curvature="0" />
      <path
         d="m 319.40443,71.291251 v 20.08545 h -2.42716 v -20.08545 z"
         style="font-size:88.19444275px;fill:#ffffff;stroke-width:0.08181447"
         id="path1216"
         inkscape:connector-curvature="0" />
      <path
         d="m 329.27288,77.345521 q 1.51357,0 2.72715,0.50452 1.22722,0.50452 2.07263,1.43176 0.85905,0.92723 1.30903,2.2499 0.46362,1.30903 0.46362,2.93168 0,1.63629 -0.46362,2.94532 -0.44998,1.30903 -1.30903,2.23626 -0.84541,0.92723 -2.07263,1.43176 -1.21358,0.49088 -2.72715,0.49088 -1.51357,0 -2.74079,-0.49088 -1.21358,-0.50453 -2.07263,-1.43176 -0.85905,-0.92723 -1.32267,-2.23626 -0.46361,-1.30903 -0.46361,-2.94532 0,-1.62265 0.46361,-2.93168 0.46362,-1.32267 1.32267,-2.2499 0.85905,-0.92724 2.07263,-1.43176 1.22722,-0.50452 2.74079,-0.50452 z m 0,12.32672 q 2.04536,0 3.05441,-1.36358 1.00904,-1.37721 1.00904,-3.83164 0,-2.46807 -1.00904,-3.84528 -1.00905,-1.37722 -3.05441,-1.37722 -1.03632,0 -1.79992,0.35453 -0.7636,0.35453 -1.28176,1.02269 -0.50452,0.66815 -0.7636,1.64992 -0.24544,0.96814 -0.24544,2.19536 0,1.22721 0.24544,2.19535 0.25908,0.96814 0.7636,1.63629 0.51816,0.65452 1.28176,1.00905 0.7636,0.35453 1.79992,0.35453 z"
         style="font-size:88.19444275px;fill:#ffffff;stroke-width:0.08181447"
         id="path1218"
         inkscape:connector-curvature="0" />
      <path
         d="m 340.96255,77.563691 v 8.80869 q 0,1.56811 0.7227,2.42717 0.72269,0.85905 2.18171,0.85905 1.06359,0 2.00446,-0.50452 0.94086,-0.50453 1.73174,-1.40449 v -10.1859 h 2.42716 v 13.81301 h -1.44539 q -0.51815,0 -0.65451,-0.50452 l -0.1909,-1.48629 q -0.89996,0.9954 -2.01809,1.60901 -1.11814,0.59998 -2.56352,0.59998 -1.13177,0 -2.00446,-0.36817 -0.85905,-0.3818 -1.44539,-1.06359 -0.58633,-0.68178 -0.88632,-1.64993 -0.28635,-0.96813 -0.28635,-2.14081 v -8.80869 z"
         style="font-size:88.19444275px;fill:#ffffff;stroke-width:0.08181447"
         id="path1220"
         inkscape:connector-curvature="0" />
      <path
         d="m 363.76535,91.376701 q -0.51816,0 -0.65452,-0.50452 l -0.21817,-1.6772 q -0.88633,1.07723 -2.03173,1.73174 -1.13176,0.64088 -2.60442,0.64088 -1.18631,0 -2.15445,-0.44998 -0.96814,-0.46361 -1.64993,-1.34993 -0.68178,-0.88633 -1.04995,-2.209 -0.36817,-1.32266 -0.36817,-3.04077 0,-1.5272 0.40908,-2.83623 0.40907,-1.32267 1.17267,-2.29081 0.77724,-0.96814 1.88173,-1.51357 1.1045,-0.55906 2.50898,-0.55906 1.26812,0 2.16808,0.43634 0.89996,0.42271 1.60902,1.19995 v -7.66329 h 2.42717 v 20.08545 z m -4.70434,-1.77264 q 1.18631,0 2.07264,-0.54543 0.89996,-0.54544 1.64992,-1.54084 v -6.68152 q -0.66815,-0.89996 -1.47266,-1.25449 -0.79087,-0.36816 -1.75901,-0.36816 -1.93627,0 -2.97259,1.37721 -1.03632,1.37721 -1.03632,3.92709 0,1.34994 0.23181,2.31808 0.23181,0.9545 0.68179,1.58174 0.44998,0.61361 1.10449,0.89997 0.65452,0.28635 1.49993,0.28635 z"
         style="font-size:88.19444275px;fill:#ffffff;stroke-width:0.08181447"
         id="path1222"
         inkscape:connector-curvature="0" />
      <path
         d="m 371.37665,77.563691 v 8.80869 q 0,1.56811 0.72269,2.42717 0.7227,0.85905 2.18172,0.85905 1.06359,0 2.00446,-0.50452 0.94086,-0.50453 1.73173,-1.40449 v -10.1859 h 2.42717 v 13.81301 h -1.44539 q -0.51816,0 -0.65452,-0.50452 l -0.1909,-1.48629 q -0.89996,0.9954 -2.01809,1.60901 -1.11813,0.59998 -2.56352,0.59998 -1.13176,0 -2.00445,-0.36817 -0.85905,-0.3818 -1.44539,-1.06359 -0.58634,-0.68178 -0.88633,-1.64993 -0.28635,-0.96813 -0.28635,-2.14081 v -8.80869 z"
         style="font-size:88.19444275px;fill:#ffffff;stroke-width:0.08181447"
         id="path1224"
         inkscape:connector-curvature="0" />
      <path
         d="m 387.15705,71.291251 v 20.08545 h -2.42716 v -20.08545 z"
         style="font-size:88.19444275px;fill:#ffffff;stroke-width:0.08181447"
         id="path1226"
         inkscape:connector-curvature="0" />
      <path
         d="m 393.53475,77.563691 v 8.80869 q 0,1.56811 0.72269,2.42717 0.72269,0.85905 2.18172,0.85905 1.06359,0 2.00445,-0.50452 0.94087,-0.50453 1.73174,-1.40449 v -10.1859 h 2.42717 v 13.81301 h -1.44539 q -0.51816,0 -0.65452,-0.50452 l -0.1909,-1.48629 q -0.89996,0.9954 -2.01809,1.60901 -1.11813,0.59998 -2.56352,0.59998 -1.13177,0 -2.00445,-0.36817 -0.85906,-0.3818 -1.44539,-1.06359 -0.58634,-0.68178 -0.88633,-1.64993 -0.28635,-0.96813 -0.28635,-2.14081 v -8.80869 z"
         style="font-size:88.19444275px;fill:#ffffff;stroke-width:0.08181447"
         id="path1228"
         inkscape:connector-curvature="0" />
      <path
         d="m 414.52399,79.840861 q -0.16363,0.29999 -0.50453,0.29999 -0.20453,0 -0.46361,-0.14999 -0.25908,-0.15 -0.64088,-0.32726 -0.36817,-0.1909 -0.88633,-0.3409 -0.51815,-0.16363 -1.22721,-0.16363 -0.61361,0 -1.1045,0.16363 -0.49088,0.15 -0.84541,0.42271 -0.3409,0.27272 -0.5318,0.64088 -0.17726,0.35453 -0.17726,0.77724 0,0.53179 0.29998,0.88632 0.31363,0.35453 0.81815,0.61361 0.50452,0.25908 1.1454,0.46362 0.64088,0.1909 1.30903,0.42271 0.68179,0.21817 1.32267,0.49088 0.64088,0.27272 1.1454,0.68179 0.50453,0.40907 0.80451,1.00904 0.31363,0.58634 0.31363,1.41812 0,0.9545 -0.3409,1.77265 -0.34089,0.80451 -1.00905,1.40448 -0.66815,0.58634 -1.63629,0.92723 -0.96813,0.3409 -2.23626,0.3409 -1.44538,0 -2.61806,-0.46362 -1.17267,-0.47725 -1.99082,-1.21358 l 0.5727,-0.92723 q 0.10909,-0.17727 0.25908,-0.27272 0.15,-0.0954 0.39544,-0.0954 0.24544,0 0.51816,0.1909 0.27271,0.1909 0.65451,0.42271 0.39544,0.23181 0.94087,0.42271 0.55907,0.1909 1.39085,0.1909 0.70905,0 1.24085,-0.17726 0.53179,-0.1909 0.88632,-0.50453 0.35453,-0.31362 0.51816,-0.72269 0.17726,-0.40908 0.17726,-0.87269 0,-0.5727 -0.31362,-0.94087 -0.29998,-0.3818 -0.80451,-0.64088 -0.50452,-0.27271 -1.15904,-0.46361 -0.64087,-0.20454 -1.32266,-0.42271 -0.66815,-0.21817 -1.32267,-0.49089 -0.64088,-0.28635 -1.1454,-0.70906 -0.50452,-0.4227 -0.81815,-1.03631 -0.29998,-0.62725 -0.29998,-1.51357 0,-0.79087 0.32726,-1.51357 0.32725,-0.73633 0.9545,-1.28176 0.62724,-0.55906 1.54084,-0.88632 0.91359,-0.32726 2.08626,-0.32726 1.36358,0 2.4408,0.43634 1.09086,0.42271 1.88174,1.17268 z"
         style="font-size:88.19444275px;fill:#ffffff;stroke-width:0.08181447"
         id="path1230"
         inkscape:connector-curvature="0" />
      <path
         d="m 417.64912,89.876771 q 0,-0.35453 0.12272,-0.66815 0.13636,-0.31362 0.35453,-0.54543 0.23181,-0.23181 0.54543,-0.36817 0.31362,-0.13635 0.66815,-0.13635 0.35453,0 0.66816,0.13635 0.31362,0.13636 0.54543,0.36817 0.2318,0.23181 0.35453,0.54543 0.13636,0.31362 0.13636,0.66815 0,0.36817 -0.13636,0.68179 -0.12273,0.29999 -0.35453,0.53179 -0.23181,0.23181 -0.54543,0.35453 -0.31363,0.13636 -0.66816,0.13636 -0.35453,0 -0.66815,-0.13636 -0.31362,-0.12272 -0.54543,-0.35453 -0.21817,-0.2318 -0.35453,-0.53179 -0.12272,-0.31362 -0.12272,-0.68179 z"
         style="font-size:88.19444275px;fill:#ffffff;stroke-width:0.08181447"
         id="path1232"
         inkscape:connector-curvature="0" />
      <path
         d="m 434.24084,84.313391 q 0.1909,0.32725 0.32726,0.69542 0.14999,0.35453 0.28635,0.72269 0.13635,-0.3818 0.28635,-0.72269 0.14999,-0.35453 0.34089,-0.70906 l 6.61335,-12.01309 q 0.17724,-0.31362 0.36815,-0.3818 0.19091,-0.0682 0.54544,-0.0682 h 1.94991 v 19.54002 h -2.31807 v -14.35844 q 0,-0.28635 0.0136,-0.61361 0.0136,-0.32725 0.0409,-0.66815 l -6.69516,12.21763 q -0.34089,0.61361 -0.9545,0.61361 h -0.3818 q -0.61361,0 -0.95451,-0.61361 l -6.84514,-12.25853 q 0.0409,0.35452 0.0545,0.69542 0.0273,0.34089 0.0273,0.62724 v 14.35844 h -2.31808 v -19.54002 h 1.94991 q 0.35453,0 0.54543,0.0682 0.1909,0.0682 0.36817,0.3818 l 6.74969,12.02673 z"
         style="font-size:88.19444275px;fill:#ffffff;stroke-width:0.08181447"
         id="path1234"
         inkscape:connector-curvature="0" />
      <path
         d="m 454.80141,77.345521 q 1.24087,0 2.29083,0.42271 1.04992,0.40907 1.81354,1.19994 0.76359,0.77724 1.1863,1.93628 0.43637,1.1454 0.43637,2.61806 0,0.5727 -0.12273,0.76361 -0.12273,0.1909 -0.46362,0.1909 h -9.19051 q 0.0272,1.30903 0.35455,2.27716 0.32725,0.96814 0.89995,1.62266 0.57271,0.64088 1.36357,0.96814 0.79086,0.31362 1.77264,0.31362 0.91362,0 1.56811,-0.20454 0.66817,-0.21817 1.14542,-0.46361 0.47725,-0.24545 0.79086,-0.44998 0.32728,-0.21818 0.55907,-0.21818 0.3,0 0.46361,0.23181 l 0.6818,0.88633 q -0.44998,0.54543 -1.07723,0.9545 -0.62725,0.39544 -1.34993,0.65452 -0.70907,0.25907 -1.47266,0.3818 -0.76362,0.13635 -1.51357,0.13635 -1.43175,0 -2.64535,-0.47725 -1.19993,-0.49088 -2.08624,-1.41811 -0.87272,-0.94087 -1.3636,-2.31808 -0.49089,-1.37721 -0.49089,-3.16349 0,-1.44539 0.43634,-2.69988 0.45001,-1.25449 1.28178,-2.16809 0.83177,-0.92723 2.03173,-1.44539 1.19993,-0.53179 2.69986,-0.53179 z m 0.0546,1.78628 q -1.759,0 -2.76805,1.02269 -1.00904,1.00904 -1.2545,2.80896 h 7.5133 q 0,-0.84542 -0.23182,-1.54084 -0.23179,-0.70906 -0.68177,-1.21358 -0.44997,-0.51816 -1.1045,-0.79088 -0.64089,-0.28635 -1.47266,-0.28635 z"
         style="font-size:88.19444275px;fill:#ffffff;stroke-width:0.08181447"
         id="path1236"
         inkscape:connector-curvature="0" />
      <path
         d="m 473.33071,91.376701 q -0.51816,0 -0.65452,-0.50452 l -0.21819,-1.6772 q -0.88632,1.07723 -2.03173,1.73174 -1.13174,0.64088 -2.6044,0.64088 -1.18633,0 -2.15446,-0.44998 -0.96814,-0.46361 -1.64991,-1.34993 -0.6818,-0.88633 -1.04996,-2.209 -0.36818,-1.32266 -0.36818,-3.04077 0,-1.5272 0.40909,-2.83623 0.40907,-1.32267 1.17266,-2.29081 0.77725,-0.96814 1.88173,-1.51357 1.1045,-0.55906 2.50898,-0.55906 1.26814,0 2.16809,0.43634 0.89996,0.42271 1.60903,1.19995 v -7.66329 h 2.42716 v 20.08545 z m -4.70435,-1.77264 q 1.18633,0 2.07264,-0.54543 0.89996,-0.54544 1.64994,-1.54084 v -6.68152 q -0.66816,-0.89996 -1.47266,-1.25449 -0.79089,-0.36816 -1.75903,-0.36816 -1.93627,0 -2.97259,1.37721 -1.03632,1.37721 -1.03632,3.92709 0,1.34994 0.23182,2.31808 0.23179,0.9545 0.68177,1.58174 0.45,0.61361 1.1045,0.89997 0.65453,0.28635 1.49993,0.28635 z"
         style="font-size:88.19444275px;fill:#ffffff;stroke-width:0.08181447"
         id="path1238"
         inkscape:connector-curvature="0" />
      <path
         d="m 481.54196,77.563691 v 13.81301 h -2.42716 v -13.81301 z m 0.54543,-4.33616 q 0,0.35453 -0.15,0.66815 -0.13633,0.29998 -0.38179,0.54543 -0.2318,0.2318 -0.54544,0.36816 -0.31361,0.13636 -0.66813,0.13636 -0.35455,0 -0.66816,-0.13636 -0.29998,-0.13636 -0.54543,-0.36816 -0.2318,-0.24545 -0.36816,-0.54543 -0.13637,-0.31362 -0.13637,-0.66815 0,-0.35453 0.13637,-0.66815 0.13636,-0.32726 0.36816,-0.55907 0.24545,-0.24544 0.54543,-0.3818 0.31361,-0.13636 0.66816,-0.13636 0.35452,0 0.66813,0.13636 0.31364,0.13636 0.54544,0.3818 0.24546,0.23181 0.38179,0.55907 0.15,0.31362 0.15,0.66815 z"
         style="font-size:88.19444275px;fill:#ffffff;stroke-width:0.08181447"
         id="path1240"
         inkscape:connector-curvature="0" />
      <path
         d="m 495.96476,91.376701 h -1.07723 q -0.35452,0 -0.57271,-0.10908 -0.21815,-0.10909 -0.28634,-0.46362 l -0.27273,-1.28176 q -0.54543,0.49089 -1.06359,0.88633 -0.51816,0.3818 -1.09084,0.65451 -0.57271,0.25908 -1.22723,0.39544 -0.64089,0.13636 -1.43175,0.13636 -0.8045,0 -1.51357,-0.21818 -0.69541,-0.2318 -1.21357,-0.68178 -0.51816,-0.44998 -0.8318,-1.13177 -0.29997,-0.69543 -0.29997,-1.63629 0,-0.81815 0.44997,-1.56811 0.44998,-0.7636 1.44539,-1.34994 1.00905,-0.58634 2.63171,-0.9545 1.62263,-0.3818 3.968,-0.43635 v -1.07722 q 0,-1.60902 -0.69543,-2.42716 -0.6818,-0.83178 -2.03173,-0.83178 -0.88632,0 -1.49994,0.2318 -0.59997,0.21818 -1.04995,0.50453 -0.43634,0.27271 -0.76359,0.50452 -0.31361,0.21817 -0.62725,0.21817 -0.24543,0 -0.43634,-0.12272 -0.17728,-0.13636 -0.28634,-0.32726 l -0.43634,-0.77724 q 1.14538,-1.10449 2.46804,-1.64992 1.32269,-0.54543 2.93171,-0.54543 1.15902,0 2.05898,0.3818 0.89995,0.3818 1.51357,1.06359 0.61361,0.68178 0.92722,1.64992 0.31365,0.96814 0.31365,2.12718 z m -6.29971,-1.48629 q 0.64086,0 1.17265,-0.12272 0.5318,-0.13636 0.99541,-0.36817 0.47725,-0.24544 0.89996,-0.58634 0.43634,-0.34089 0.84543,-0.77724 v -2.87714 q -1.6772,0.0546 -2.84989,0.27272 -1.17266,0.20453 -1.909,0.54543 -0.73632,0.34089 -1.07723,0.80451 -0.32725,0.46361 -0.32725,1.03631 0,0.54543 0.17728,0.94087 0.17724,0.39544 0.47725,0.65452 0.29997,0.24544 0.70904,0.36816 0.4091,0.10909 0.88635,0.10909 z"
         style="font-size:88.19444275px;fill:#ffffff;stroke-width:0.08181447"
         id="path1242"
         inkscape:connector-curvature="0" />
    </g>
  </g>
</svg>
