<?xml version="1.0" encoding="UTF-8" standalone="no"?>
<!-- Created with Inkscape (http://www.inkscape.org/) -->

<svg
   xmlns:dc="http://purl.org/dc/elements/1.1/"
   xmlns:cc="http://creativecommons.org/ns#"
   xmlns:rdf="http://www.w3.org/1999/02/22-rdf-syntax-ns#"
   xmlns:svg="http://www.w3.org/2000/svg"
   xmlns="http://www.w3.org/2000/svg"
   xmlns:sodipodi="http://sodipodi.sourceforge.net/DTD/sodipodi-0.dtd"
   xmlns:inkscape="http://www.inkscape.org/namespaces/inkscape"
   width="190mm"
   height="190mm"
   viewBox="0 0 190 190"
   version="1.1"
   id="svg1251"
   inkscape:version="0.92.3 (2405546, 2018-03-11)"
   sodipodi:docname="cloud-code-icon.svg"
   inkscape:export-filename="C:\Users\Nathan\ownCloud\mars\Documents\cld\cloud-code-icon.png"
   inkscape:export-xdpi="12.01"
   inkscape:export-ydpi="12.01">
  <defs
     id="defs1245" />
  <sodipodi:namedview
     id="base"
     pagecolor="#ffffff"
     bordercolor="#666666"
     borderopacity="1.0"
     inkscape:pageopacity="0.0"
     inkscape:pageshadow="2"
     inkscape:zoom="0.35"
     inkscape:cx="-125.90476"
     inkscape:cy="187.54763"
     inkscape:document-units="mm"
     inkscape:current-layer="layer1"
     showgrid="false"
     fit-margin-top="0"
     fit-margin-left="0"
     fit-margin-right="0"
     fit-margin-bottom="0"
     inkscape:window-width="1920"
     inkscape:window-height="1017"
     inkscape:window-x="-8"
     inkscape:window-y="-8"
     inkscape:window-maximized="1" />
  <metadata
     id="metadata1248">
    <rdf:RDF>
      <cc:Work
         rdf:about="">
        <dc:format>image/svg+xml</dc:format>
        <dc:type
           rdf:resource="http://purl.org/dc/dcmitype/StillImage" />
        <dc:title></dc:title>
      </cc:Work>
    </rdf:RDF>
  </metadata>
  <g
     inkscape:label="Layer 1"
     inkscape:groupmode="layer"
     id="layer1"
     transform="translate(-13.279563,-8.4553106)">
    <g
       id="g1895"
       transform="matrix(0.26458333,0,0,0.26458333,34.826255,67.242789)"
       style="fill:#6d6dc3;fill-opacity:1">
      <g
         id="g1839"
         style="fill:#6d6dc3;fill-opacity:1">
	<path
   id="path1837"
   d="m 535.61157,162.77928 c -15.985,-19.893 -36.265,-32.691 -60.815,-38.399 7.81,-11.993 11.704,-25.125996 11.704,-39.398996 0,-20.177 -7.139,-37.401 -21.409,-51.678 -14.273,-14.272 -31.498,-21.411 -51.675,-21.411 -18.271,0 -34.071,5.901 -47.39,17.703 -11.225,-27.028 -29.075,-48.917 -53.529,-65.667 -24.46,-16.746 -51.728,-25.125 -81.802,-25.125 -40.349,0 -74.802,14.279 -103.353,42.83 -28.552998,28.544 -42.824998,62.999 -42.824998,103.351 0,2.856 0.191,6.945 0.571,12.275 -22.078,10.278996 -39.876,25.837996 -53.389,46.685996 -13.512,20.836 -20.271,43.824 -20.271,68.949 0,35.211 12.517,65.333 37.544,90.359 25.028,25.033 55.149998,37.548 90.361998,37.548 h 310.636 c 30.259,0 56.096,-10.715 77.512,-32.121 21.413,-21.412 32.121,-47.249 32.121,-77.515 -0.003,-25.694 -8.001,-48.499 -23.992,-68.386 z"
   inkscape:connector-curvature="0"
   style="fill:#6d6dc3;fill-opacity:1" />

</g>
      <g
         id="g1841"
         style="fill:#6d6dc3;fill-opacity:1">
</g>
      <g
         id="g1843"
         style="fill:#6d6dc3;fill-opacity:1">
</g>
      <g
         id="g1845"
         style="fill:#6d6dc3;fill-opacity:1">
</g>
      <g
         id="g1847"
         style="fill:#6d6dc3;fill-opacity:1">
</g>
      <g
         id="g1849"
         style="fill:#6d6dc3;fill-opacity:1">
</g>
      <g
         id="g1851"
         style="fill:#6d6dc3;fill-opacity:1">
</g>
      <g
         id="g1853"
         style="fill:#6d6dc3;fill-opacity:1">
</g>
      <g
         id="g1855"
         style="fill:#6d6dc3;fill-opacity:1">
</g>
      <g
         id="g1857"
         style="fill:#6d6dc3;fill-opacity:1">
</g>
      <g
         id="g1859"
         style="fill:#6d6dc3;fill-opacity:1">
</g>
      <g
         id="g1861"
         style="fill:#6d6dc3;fill-opacity:1">
</g>
      <g
         id="g1863"
         style="fill:#6d6dc3;fill-opacity:1">
</g>
      <g
         id="g1865"
         style="fill:#6d6dc3;fill-opacity:1">
</g>
      <g
         id="g1867"
         style="fill:#6d6dc3;fill-opacity:1">
</g>
      <g
         id="g1869"
         style="fill:#6d6dc3;fill-opacity:1">
</g>
    </g>
    <g
       aria-label="{"
       style="font-style:normal;font-variant:normal;font-weight:normal;font-stretch:normal;font-size:14.66597366px;line-height:1.25;font-family:Lato;-inkscape-font-specification:Lato;letter-spacing:0px;word-spacing:0px;fill:#000000;fill-opacity:1;stroke:none;stroke-width:0.36664933"
       id="text1899"
       transform="translate(3.0238095,-35.529762)">
      <path
         d="m 21.65139,153.47592 q 0,-3.84982 -2.138788,-6.29415 -2.138788,-2.50543 -6.233039,-2.50543 v -6.53858 q 4.094251,0 6.233039,-2.44433 2.138788,-2.44433 2.138788,-6.35526 0,-3.05541 -0.488866,-6.04971 -0.488866,-2.99431 -1.099948,-5.98861 -0.549974,-2.9943 -1.03884,-6.04971 -0.488866,-3.05541 -0.488866,-6.23304 0,-4.21647 1.222165,-7.760745 1.283272,-3.544277 3.78871,-6.110823 2.566545,-2.566545 6.294146,-3.972034 3.78871,-1.405489 8.799585,-1.405489 h 3.238735 v 4.827549 q 0,1.222165 -0.855515,1.772139 -0.855515,0.549974 -1.588814,0.549974 h -1.222164 q -4.705333,0 -7.455203,3.116519 -2.688762,3.055411 -2.688762,8.31072 0,3.42206 0.427758,6.59969 0.427757,3.17762 0.977731,6.23304 0.549974,2.9943 0.977732,5.9886 0.427757,2.9943 0.427757,6.04972 0,2.32211 -0.67219,4.33868 -0.672191,1.95546 -1.955463,3.54428 -1.222165,1.5277 -2.933195,2.68876 -1.649922,1.09995 -3.666493,1.64992 2.016571,0.54997 3.666493,1.71103 1.71103,1.09995 2.933195,2.68876 1.283272,1.58882 1.955463,3.54428 0.67219,1.95546 0.67219,4.21647 0,3.05541 -0.427757,6.04971 -0.427758,2.9943 -0.977732,6.04971 -0.549974,2.99431 -0.977731,6.17194 -0.427758,3.17762 -0.427758,6.59968 0,5.31642 2.688762,8.37183 2.74987,3.05541 7.455203,3.05541 h 1.222164 q 0.733299,0 1.588814,0.54997 0.855515,0.54998 0.855515,1.77214 v 4.88866 h -3.238735 q -5.010875,0 -8.799585,-1.4666 -3.727601,-1.40549 -6.294146,-3.97203 -2.505438,-2.56655 -3.78871,-6.11082 -1.222165,-3.54428 -1.222165,-7.76075 0,-3.17762 0.488866,-6.17193 0.488866,-3.05541 1.03884,-6.04971 0.611082,-3.05541 1.099948,-6.04972 0.488866,-2.9943 0.488866,-6.04971 z"
         style="font-size:122.21644592px;fill:#4d4d4d;fill-opacity:1;stroke-width:0.36664933"
         id="path1953"
         inkscape:connector-curvature="0" />
    </g>
    <g
       aria-label="{"
       transform="matrix(-1,0,0,1,3.0238095,-35.529762)"
       style="font-style:normal;font-variant:normal;font-weight:normal;font-stretch:normal;font-size:14.66597366px;line-height:1.25;font-family:Lato;-inkscape-font-specification:Lato;letter-spacing:0px;word-spacing:0px;fill:#000000;fill-opacity:1;stroke:none;stroke-width:0.36664933"
       id="text1899-9">
      <path
         d="m -191.51381,154.82403 q 0,-3.84982 -2.13879,-6.29415 -2.13879,-2.50543 -6.23304,-2.50543 v -6.53858 q 4.09425,0 6.23304,-2.44433 2.13879,-2.44433 2.13879,-6.35526 0,-3.05541 -0.48887,-6.04971 -0.48886,-2.9943 -1.09995,-5.98861 -0.54997,-2.9943 -1.03884,-6.04971 -0.48886,-3.05541 -0.48886,-6.23304 0,-4.21647 1.22216,-7.760746 1.28327,-3.544277 3.78871,-6.110823 2.56655,-2.566546 6.29415,-3.972035 3.78871,-1.405489 8.79958,-1.405489 h 3.23874 v 4.82755 q 0,1.222164 -0.85551,1.772139 -0.85552,0.549974 -1.58882,0.549974 h -1.22216 q -4.70534,0 -7.45521,3.116519 -2.68876,3.055411 -2.68876,8.310721 0,3.42206 0.42776,6.59969 0.42776,3.17762 0.97773,6.23304 0.54997,2.9943 0.97773,5.9886 0.42776,2.9943 0.42776,6.04972 0,2.32211 -0.67219,4.33868 -0.67219,1.95546 -1.95546,3.54428 -1.22217,1.5277 -2.9332,2.68876 -1.64992,1.09995 -3.66649,1.64992 2.01657,0.54998 3.66649,1.71103 1.71103,1.09995 2.9332,2.68876 1.28327,1.58882 1.95546,3.54428 0.67219,1.95546 0.67219,4.21647 0,3.05541 -0.42776,6.04971 -0.42776,2.99431 -0.97773,6.04972 -0.54997,2.9943 -0.97773,6.17193 -0.42776,3.17763 -0.42776,6.59969 0,5.31641 2.68876,8.37182 2.74987,3.05542 7.45521,3.05542 h 1.22216 q 0.7333,0 1.58882,0.54997 0.85551,0.54997 0.85551,1.77214 v 4.88866 h -3.23874 q -5.01087,0 -8.79958,-1.4666 -3.7276,-1.40549 -6.29415,-3.97204 -2.50544,-2.56654 -3.78871,-6.11082 -1.22216,-3.54428 -1.22216,-7.76074 0,-3.17763 0.48886,-6.17193 0.48887,-3.05542 1.03884,-6.04972 0.61109,-3.05541 1.09995,-6.04971 0.48887,-2.99431 0.48887,-6.04972 z"
         style="font-size:122.21645355px;fill:#4d4d4d;fill-opacity:1;stroke-width:0.36664933"
         id="path1950"
         inkscape:connector-curvature="0" />
    </g>
  </g>
</svg>
